<?xml version="1.0" encoding="UTF-8" standalone="no"?>
<!-- Created with Inkscape (http://www.inkscape.org/) -->

<svg
   xmlns:dc="http://purl.org/dc/elements/1.1/"
   xmlns:cc="http://creativecommons.org/ns#"
   xmlns:rdf="http://www.w3.org/1999/02/22-rdf-syntax-ns#"
   xmlns:svg="http://www.w3.org/2000/svg"
   xmlns="http://www.w3.org/2000/svg"
   xmlns:sodipodi="http://sodipodi.sourceforge.net/DTD/sodipodi-0.dtd"
   xmlns:inkscape="http://www.inkscape.org/namespaces/inkscape"
   width="8.4666662mm"
   height="16.933332mm"
   viewBox="0 0 8.4666662 16.933332"
   version="1.1"
   id="svg8"
   inkscape:version="0.92.2 (5c3e80d, 2017-08-06)"
   sodipodi:docname="user.svg">
  <defs
     id="defs2" />
  <sodipodi:namedview
     id="base"
     pagecolor="#ffffff"
     bordercolor="#666666"
     borderopacity="1.0"
     inkscape:pageopacity="0.0"
     inkscape:pageshadow="2"
     inkscape:zoom="5.9021147"
     inkscape:cx="15.981019"
     inkscape:cy="27.18265"
     inkscape:document-units="mm"
     inkscape:current-layer="g949"
     showgrid="false"
     fit-margin-top="0"
     fit-margin-left="0"
     fit-margin-right="0"
     fit-margin-bottom="0"
     inkscape:window-width="1920"
     inkscape:window-height="1017"
     inkscape:window-x="-8"
     inkscape:window-y="-8"
     inkscape:window-maximized="1" />
  <metadata
     id="metadata5">
    <rdf:RDF>
      <cc:Work
         rdf:about="">
        <dc:format>image/svg+xml</dc:format>
        <dc:type
           rdf:resource="http://purl.org/dc/dcmitype/StillImage" />
        <dc:title />
      </cc:Work>
    </rdf:RDF>
  </metadata>
  <g
     inkscape:label="Livello 1"
     inkscape:groupmode="layer"
     id="layer1"
     transform="translate(-40.133408,-189.64361)">
    <g
       id="g42"
       transform="matrix(0.26458333,0,0,0.26458333,40.133408,189.64361)">
      <g
         id="g879"
         transform="translate(-30.439593,13.546616)"
         style="stroke-width:1.13385828;stroke-miterlimit:4;stroke-dasharray:none">
        <g
           id="g949"
           transform="matrix(1.2360332,0,0,1.4104568,-604.63532,-175.695)"
           style="stroke-width:0.8587442;stroke-miterlimit:4;stroke-dasharray:none">
          <path
             style="fill:#020202;stroke:#000000;stroke-width:0.83222985;stroke-miterlimit:4;stroke-dasharray:none;stroke-opacity:1"
             d="m 516.43729,135.56554 c -0.5013,-0.10994 -0.98322,-0.3942 -1.25502,-0.7403 -0.1903,-0.2423 -0.37916,-0.64917 -0.43464,-0.93628 l -0.0406,-0.21003 -0.0119,0.17002 c -0.01,0.14218 -0.0179,0.12627 -0.0482,-0.0972 -0.0473,-0.34884 -0.0473,-12.32983 0,-12.67866 0.0347,-0.25571 0.0368,-0.25884 0.0486,-0.0729 l 0.0123,0.19431 0.0392,-0.2383 c 0.0566,-0.34415 0.31338,-0.84161 0.56573,-1.09598 0.26152,-0.26363 0.64114,-0.47972 1.02278,-0.58224 l 0.27976,-0.0751 0.0863,-0.34675 c 0.1708,-0.68599 0.49364,-1.14779 0.99132,-1.41799 0.58992,-0.32028 -0.0984,-0.2998 10.07837,-0.2998 6.6638,0 9.30991,0.0152 9.49218,0.0547 0.7852,0.16983 1.45504,0.85751 1.60799,1.6508 l 0.0411,0.21333 0.0119,-0.17001 c 0.01,-0.14218 0.0179,-0.12628 0.0482,0.0972 0.0473,0.34884 0.0473,12.32981 0,12.67865 -0.0303,0.22344 -0.0382,0.23934 -0.0482,0.0972 l -0.0119,-0.17002 -0.0406,0.21003 c -0.0572,0.29598 -0.25591,0.71808 -0.45403,0.96436 -0.24408,0.30339 -0.55436,0.50135 -1.01532,0.64771 l -0.40514,0.12865 -0.0983,0.41044 c -0.20232,0.84441 -0.77488,1.41745 -1.59099,1.59229 -0.18134,0.0388 -2.86854,0.0525 -9.51412,0.0485 -5.09377,-0.003 -9.30433,-0.015 -9.35679,-0.0265 z m 18.94036,-0.5456 c 0.45303,-0.12578 0.89457,-0.57445 1.02535,-1.04191 0.0422,-0.1509 0.0569,-1.8233 0.0582,-6.61467 l 0.002,-6.41273 -0.14688,-0.31971 c -0.23492,-0.51135 -0.59254,-0.78336 -1.14282,-0.86927 -0.22311,-0.0348 -3.27079,-0.0469 -9.55658,-0.0377 l -9.229,0.0134 -0.31889,0.15992 c -0.37521,0.18816 -0.61547,0.4508 -0.75172,0.82174 -0.0941,0.25623 -0.0957,0.3711 -0.0957,6.69355 v 6.43283 l 0.10122,0.28115 c 0.18381,0.51054 0.68986,0.88498 1.28178,0.94845 0.0656,0.007 4.27182,0.0102 9.34721,0.007 6.70942,-0.005 9.2821,-0.0214 9.42625,-0.0614 z m -15.41132,-1.99749 c -1.60165,-0.12768 -2.63735,-0.30665 -3.44212,-0.59481 l -0.2946,-0.10548 0.0267,-0.24459 c 0.0814,-0.74497 0.37749,-1.54679 0.76488,-2.07175 0.34477,-0.46715 0.60922,-0.63184 1.77671,-1.10643 0.64857,-0.26363 1.67298,-0.78563 1.73057,-0.88183 0.0333,-0.0556 -0.0181,-0.17319 -0.1987,-0.45507 -0.13397,-0.20905 -0.26718,-0.46929 -0.29599,-0.5783 -0.0288,-0.10903 -0.12694,-0.2868 -0.21804,-0.39504 -0.0911,-0.10825 -0.24342,-0.35698 -0.3385,-0.55273 -0.15045,-0.30975 -0.17325,-0.40291 -0.17574,-0.71811 -0.003,-0.35388 0.0194,-0.41122 0.18138,-0.46935 0.0227,-0.008 0.0568,-0.37714 0.076,-0.82005 0.0327,-0.75844 0.0432,-0.82367 0.18003,-1.12143 0.18707,-0.4072 0.41859,-0.66491 0.76752,-0.85435 0.37346,-0.20276 0.79814,-0.29833 1.32941,-0.2992 1.06053,-0.002 1.75353,0.38383 2.11676,1.17772 0.15764,0.34453 0.1613,0.36738 0.17873,1.11455 0.0173,0.74192 0.0209,0.7649 0.13206,0.83907 0.10241,0.0684 0.11427,0.1113 0.11427,0.41338 0,0.4333 -0.12823,0.78619 -0.43278,1.19094 -0.12805,0.17016 -0.29035,0.45577 -0.36065,0.63467 -0.0703,0.17892 -0.19955,0.42097 -0.28717,0.53791 -0.18684,0.24932 -0.19924,0.35702 -0.0521,0.45181 0.21464,0.13822 0.86053,0.44425 1.7409,0.82486 0.49494,0.21398 1.00142,0.44686 1.12552,0.51751 0.58639,0.33383 1.21072,1.55681 1.30125,2.54898 0.0291,0.31905 0.0285,0.3211 -0.10795,0.37654 -0.56095,0.22782 -1.60733,0.44232 -2.79824,0.57363 -0.79375,0.0876 -3.73766,0.13093 -4.54016,0.0669 z m 7.99866,-3.52392 c -0.12854,-0.0918 -0.13735,-0.26904 -0.0187,-0.37834 0.0794,-0.0732 0.38616,-0.0804 3.42627,-0.0804 3.17426,0 3.34297,0.004 3.41799,0.0888 0.10991,0.12371 0.0984,0.28035 -0.0271,0.3699 -0.0934,0.0667 -0.49578,0.0756 -3.39922,0.0756 -2.90343,0 -3.30576,-0.009 -3.39921,-0.0756 z m -0.0271,-2.87927 c -0.10611,-0.11943 -0.0997,-0.28502 0.0134,-0.34666 0.0611,-0.0332 1.22048,-0.0503 3.43027,-0.0503 2.97096,0 3.34625,0.009 3.41295,0.0763 0.0889,0.0905 0.098,0.26939 0.0177,0.35113 -0.0434,0.0443 -0.86948,0.0584 -3.42627,0.0584 -3.20332,0 -3.37293,-0.004 -3.44798,-0.0888 z m -0.004,-2.8218 c -0.10984,-0.12365 -0.079,-0.30328 0.0645,-0.37589 0.0868,-0.0439 0.93271,-0.0591 3.38453,-0.0605 3.55115,-0.002 3.48627,-0.007 3.48627,0.26005 0,0.28137 0.15387,0.26953 -3.50122,0.26953 -3.24272,0 -3.35401,-0.003 -3.4341,-0.0931 z m 9.64905,9.02603 c 0.20307,-0.10337 0.35603,-0.2274 0.48438,-0.39281 0.35342,-0.45541 0.33341,-0.004 0.31954,-7.2063 l -0.0125,-6.45867 -0.13629,-0.28272 c -0.17115,-0.35503 -0.55655,-0.68016 -0.90955,-0.76732 -0.18664,-0.0461 -2.34104,-0.0606 -9.44593,-0.0635 -5.06228,-0.002 -9.31889,0.0133 -9.45913,0.034 -0.65919,0.0978 -1.20228,0.66303 -1.21721,1.26677 l -0.006,0.24986 9.08492,0.0242 c 10.10763,0.027 9.18667,-0.007 9.74098,0.35469 0.43376,0.28264 0.77257,0.78001 0.89279,1.31062 0.0287,0.12677 0.0469,2.46962 0.0476,6.14349 l 9.6e-4,5.93857 h 0.15929 c 0.0877,0 0.29285,-0.068 0.45609,-0.15107 z"
             id="path953"
             inkscape:connector-curvature="0" />
          <path
             style="fill:#ffffff;stroke:#ffffff;stroke-width:0.83222991;stroke-miterlimit:4;stroke-dasharray:none;stroke-opacity:1;fill-opacity:1"
             d="m 516.43729,158.25322 c -0.5013,-0.10994 -0.98322,-0.3942 -1.25502,-0.7403 -0.1903,-0.2423 -0.37916,-0.64917 -0.43464,-0.93628 l -0.0406,-0.21003 -0.0119,0.17002 c -0.01,0.14218 -0.0179,0.12627 -0.0482,-0.0972 -0.0473,-0.34884 -0.0473,-12.32983 0,-12.67866 0.0347,-0.25571 0.0368,-0.25884 0.0486,-0.0729 l 0.0123,0.19431 0.0392,-0.2383 c 0.0566,-0.34415 0.31338,-0.84161 0.56573,-1.09598 0.26152,-0.26363 0.64114,-0.47972 1.02278,-0.58224 l 0.27976,-0.0751 0.0863,-0.34675 c 0.1708,-0.68599 0.49364,-1.14779 0.99132,-1.41799 0.58992,-0.32028 -0.0984,-0.2998 10.07837,-0.2998 6.6638,0 9.30991,0.0152 9.49218,0.0547 0.7852,0.16983 1.45504,0.85751 1.60799,1.6508 l 0.0411,0.21333 0.0119,-0.17001 c 0.01,-0.14218 0.0179,-0.12628 0.0482,0.0972 0.0473,0.34884 0.0473,12.32981 0,12.67865 -0.0303,0.22344 -0.0382,0.23934 -0.0482,0.0972 l -0.0119,-0.17002 -0.0406,0.21003 c -0.0572,0.29598 -0.2559,0.71808 -0.45403,0.96436 -0.24408,0.30339 -0.55435,0.50135 -1.01531,0.64771 l -0.40514,0.12865 -0.0983,0.41044 c -0.20233,0.84441 -0.77488,1.41745 -1.59099,1.59229 -0.18134,0.0388 -2.86855,0.0525 -9.51412,0.0485 -5.09377,-0.003 -9.30434,-0.015 -9.3568,-0.0265 z m 18.94036,-0.5456 c 0.45303,-0.12578 0.89457,-0.57445 1.02535,-1.04191 0.0422,-0.1509 0.0569,-1.8233 0.0582,-6.61467 l 0.002,-6.41273 -0.14688,-0.31971 c -0.23492,-0.51135 -0.59254,-0.78336 -1.14282,-0.86927 -0.22311,-0.0348 -3.27079,-0.0469 -9.55658,-0.0377 l -9.229,0.0134 -0.31889,0.15992 c -0.37521,0.18816 -0.61547,0.4508 -0.75172,0.82174 -0.0941,0.25623 -0.0957,0.3711 -0.0957,6.69355 v 6.43283 l 0.10122,0.28115 c 0.18381,0.51054 0.68986,0.88498 1.28178,0.94845 0.0656,0.007 4.27182,0.0102 9.34721,0.007 6.70942,-0.005 9.2821,-0.0214 9.42625,-0.0614 z m -15.41132,-1.99749 c -1.60165,-0.12768 -2.63735,-0.30665 -3.44212,-0.59481 l -0.2946,-0.10548 0.0267,-0.24459 c 0.0814,-0.74497 0.37749,-1.54679 0.76488,-2.07175 0.34477,-0.46715 0.60922,-0.63184 1.77671,-1.10643 0.64857,-0.26363 1.67298,-0.78563 1.73057,-0.88183 0.0333,-0.0556 -0.0181,-0.17319 -0.1987,-0.45507 -0.13397,-0.20905 -0.26718,-0.46929 -0.29599,-0.5783 -0.0288,-0.10903 -0.12694,-0.2868 -0.21804,-0.39504 -0.0911,-0.10825 -0.24342,-0.35698 -0.3385,-0.55273 -0.15045,-0.30975 -0.17325,-0.40291 -0.17574,-0.71811 -0.003,-0.35388 0.0194,-0.41122 0.18138,-0.46935 0.0227,-0.008 0.0568,-0.37714 0.076,-0.82005 0.0327,-0.75844 0.0432,-0.82367 0.18003,-1.12143 0.18707,-0.4072 0.41859,-0.66491 0.76752,-0.85435 0.37346,-0.20276 0.79814,-0.29833 1.32941,-0.2992 1.06053,-0.002 1.75353,0.38383 2.11676,1.17772 0.15764,0.34453 0.1613,0.36738 0.17873,1.11455 0.0173,0.74192 0.0209,0.7649 0.13206,0.83907 0.10241,0.0684 0.11427,0.1113 0.11427,0.41338 0,0.4333 -0.12823,0.78619 -0.43278,1.19094 -0.12805,0.17016 -0.29035,0.45577 -0.36065,0.63467 -0.0703,0.17892 -0.19955,0.42097 -0.28717,0.53791 -0.18684,0.24932 -0.19924,0.35702 -0.0521,0.45181 0.21464,0.13822 0.86053,0.44425 1.7409,0.82486 0.49494,0.21398 1.00142,0.44686 1.12552,0.51751 0.58639,0.33383 1.21072,1.55681 1.30125,2.54898 0.0291,0.31905 0.0285,0.3211 -0.10795,0.37654 -0.56095,0.22782 -1.60733,0.44232 -2.79824,0.57363 -0.79375,0.0876 -3.73766,0.13093 -4.54016,0.0669 z m 7.99866,-3.52392 c -0.12854,-0.0918 -0.13735,-0.26904 -0.0187,-0.37834 0.0794,-0.0732 0.38616,-0.0804 3.42627,-0.0804 3.17426,0 3.34297,0.004 3.41799,0.0888 0.10991,0.12371 0.0984,0.28035 -0.0271,0.3699 -0.0934,0.0667 -0.49578,0.0756 -3.39922,0.0756 -2.90343,0 -3.30576,-0.009 -3.39921,-0.0756 z m -0.0271,-2.87927 c -0.10611,-0.11943 -0.0997,-0.28502 0.0134,-0.34666 0.0611,-0.0332 1.22048,-0.0503 3.43027,-0.0503 2.97096,0 3.34625,0.009 3.41295,0.0763 0.0889,0.0905 0.098,0.26939 0.0177,0.35113 -0.0434,0.0443 -0.86948,0.0584 -3.42627,0.0584 -3.20332,0 -3.37293,-0.004 -3.44798,-0.0888 z m -0.004,-2.8218 c -0.10984,-0.12365 -0.079,-0.30328 0.0645,-0.37589 0.0868,-0.0439 0.93271,-0.0591 3.38453,-0.0605 3.55115,-0.002 3.48627,-0.007 3.48627,0.26005 0,0.28137 0.15387,0.26953 -3.50122,0.26953 -3.24272,0 -3.35401,-0.003 -3.4341,-0.0931 z m 9.64901,9.02603 c 0.20307,-0.10337 0.35603,-0.2274 0.48438,-0.39281 0.35342,-0.45541 0.33341,-0.004 0.31954,-7.2063 l -0.0125,-6.45867 -0.13629,-0.28272 c -0.17115,-0.35503 -0.55655,-0.68016 -0.90955,-0.76732 -0.18664,-0.0461 -2.34104,-0.0606 -9.44593,-0.0635 -5.06228,-0.002 -9.31889,0.0133 -9.45913,0.034 -0.65919,0.0978 -1.20228,0.66303 -1.21721,1.26677 l -0.006,0.24986 9.08492,0.0242 c 10.10763,0.027 9.18667,-0.007 9.74098,0.35469 0.43376,0.28264 0.77257,0.78001 0.89279,1.31062 0.0287,0.12677 0.0469,2.46962 0.0476,6.14349 l 9.8e-4,5.93857 h 0.15928 c 0.0877,0 0.29286,-0.068 0.4561,-0.15107 z"
             id="path953-5"
             inkscape:connector-curvature="0" />
        </g>
      </g>
    </g>
  </g>
</svg>
